# xmcd
#
# Track frame offsets:
#	150
#	16722
#	34925
#	51304
#	70943
#	86346
#	104382
#	121490
#	134852
#	150530
#	166405
#	181744
#	194351
#	212403
#	216236
#	216854
#	217469
#	218326
#	219054
#	219734
#	220424
#
# Disc length: 2946 seconds
#
# Revision: 1
# Processed by: cddbd v1.5.2PL0 Copyright (c) Steve Scherf et al.
# Submitted via: audiograbber 1.83.01
#
DISCID=480b8015
DTITLE=Various Artist - CDX Volume 570 (May 13, 2013)
DYEAR=2013
DGENRE=Country
TTITLE0=Lady Antebellum - Goodbye Town  [Radio Edit]
TTITLE1=Trace Adkins (featuring Colbie Caillat) - Watch the World End
TTITLE2=Heartland - I Loved Her First 
TTITLE3=Sawyer Brown - Shadows of the Heartland 
TTITLE4=Dakota Bradley - Somethin' Like Somethin'
TTITLE5=Gwen Sebastian - Suitcase
TTITLE6=Andy Ross - Cold Dead Hand
TTITLE7=Elizabeth Lyons - Everything Tonight
TTITLE8=Wynn Varble - Freak Show
TTITLE9=Joanna Mosca - I Guess That Says It All
TTITLE10=Chelsea Bain - James Dean 
TTITLE11=Tobacco Rd Band (featruing Colt Ford) - That's Country
TTITLE12=Branch and Dean - The Dash 
TTITLE13=Tyler Barham - About 17 and Young Liner
TTITLE14=Tyler Barham - Home Town Country Liner
TTITLE15=Tyler Barham - Kickin' Country Liner
TTITLE16=Tyler Barham - My New Single Liner
TTITLE17=Tyler Barham - Super Country Liner
TTITLE18=Tyler Barham - The Best In Country Liner
TTITLE19=Tyler Barham - Today's Hot Country Liner
TTITLE20=Tyler Barham - Today's Hot New Country Liner
EXTD=
EXTT0=
EXTT1=
EXTT2=
EXTT3=
EXTT4=
EXTT5=
EXTT6=
EXTT7=
EXTT8=
EXTT9=
EXTT10=
EXTT11=
EXTT12=
EXTT13=
EXTT14=
EXTT15=
EXTT16=
EXTT17=
EXTT18=
EXTT19=
EXTT20=
PLAYORDER=
